# xmcd
#
# Track frame offsets:
#	150
#	14012
#	31106
#	50130
#	71829
#	91584
#	108748
#	122235
#	143206
#	155283
#	172970
#	192499
#	206532
#	230503
#	250472
#	264450
#	285136
#
# Disc length: 4010 seconds
#
# Revision: 0
# Processed by: cddbd v1.5.2PL0 Copyright (c) Steve Scherf et al.
# Submitted via: dBpowerAMP V4.0
#
DISCID=f30fa811
DTITLE=Ombre d'en Bas - L'Honneur du Rap
DYEAR=2007
DGENRE=Rap
TTITLE0=Pour l'honneur du rap
TTITLE1=Première ligne
TTITLE2=Briser les chaînes
TTITLE3=Featurist
TTITLE4=Creuse l'écart
TTITLE5=Tu dis quoi?
TTITLE6=Tous
TTITLE7=Crazy
TTITLE8=Y'a de quoi s'inquiéter
TTITLE9=Dangereux
TTITLE10=Illégal prolifik
TTITLE11=Retour vers le réel
TTITLE12=Du sud au nord
TTITLE13=Besoin de personne
TTITLE14=Pied au mur
TTITLE15=Faux gangster
TTITLE16=Medley La Sphère
EXTD=L'Honneur du Rap by Shadow Low Recrodz - www.ombredenbas.com
EXTT0=
EXTT1=
EXTT2=
EXTT3=
EXTT4=
EXTT5=
EXTT6=
EXTT7=
EXTT8=
EXTT9=
EXTT10=
EXTT11=
EXTT12=
EXTT13=
EXTT14=
EXTT15=
EXTT16=
PLAYORDER=
